<svg xmlns="http://www.w3.org/2000/svg" viewBox="0 0 128 128">
  <rect width="128" height="128" rx="24" fill="#fff"/>
  <path d="M64 98c-35.4 0-64-15.1-64-33.9S28.6 30 64 30c35.3 0 63.9 15.2 64 34.1 0 18.8-28.7 33.9-64 33.9zm12-16.6c6.4-15.3-5.7-13.4-8.7-12.7-5.6 1.2-11 3.3-15.1 5.1-12.1 4.7-18.4 9.5-20.7 11.5-.2.2-.3.3-.5.5-.3.3-.6.6-.6 1 0 .6.6.9 1.3 1.2l.3.2c9.1 2.8 20.3 4.5 32 4.5h.7c1.3 0 2.9-.3 4.2-1 4.2-2.3 6.1-7.7 7.1-10.3zm32.4-34.1c-.2.2-.3.7-.7 1-2.3 6-11.1 26.3-22.3 40-.2.3-.3.7-.6.9-.3.6-.2.9 0 1 .3.3 1.2.3 2.6 0 20.9-4.4 35.3-14.4 35.3-26.1 0-6.4-4.4-12.4-12-17.2-.7-.6-1-.6-1.3-.6-.4.1-.8.6-1 .9zM52.1 46.8c-6.4 15.3 5.7 13.4 9.1 12.8 5.6-1.2 11-3.3 15.1-5.1 12-4.8 18.3-9.5 20.6-11.5.2-.2.3-.3.6-.6.3-.3.6-.6.6-1 0-.6-.6-.9-1.3-1.2l-.3-.2c-9.1-2.8-20.3-4.5-32-4.5h-.7c-1.3 0-3 .3-4.4.9-4.2 2.3-6.1 7.7-7.2 10.3zm-11.5-8.7C19.9 42.4 5.2 52.5 5.3 64.1c0 6.4 4.4 12.4 12 17.2.7.6 1 .6 1.3.6.6-.2.9-.6 1-.9.2-.2.3-.7.6-1 2.3-6 11.1-26.3 22.3-40 .2-.3.3-.7.6-.9.2-.6.2-.9 0-1-.4-.3-1.2-.3-2.6 0z" fill="#002C5F"/>
</svg>
