<svg enable-background="new 0 0 114.6 60.3" viewBox="0 0 114.6 60.3" xmlns="http://www.w3.org/2000/svg"><path d="m57.3 60.3c-31.7 0-57.3-13.4-57.3-30.1s25.6-30.2 57.3-30.2c31.6 0 57.2 13.5 57.3 30.2 0 16.7-25.7 30.1-57.3 30.1zm10.7-14.8c5.7-13.6-5.1-11.9-7.8-11.3-5 1.1-9.8 2.9-13.5 4.5-10.8 4.2-16.5 8.5-18.5 10.2-.2.2-.3.3-.5.5-.3.3-.5.5-.5.9 0 .5.5.8 1.2 1.1l.3.2c8.1 2.5 18.1 4 28.6 4h.6c1.2 0 2.6-.3 3.8-.9 3.7-2.1 5.4-6.9 6.3-9.2zm29-30.3c-.2.2-.3.6-.6.9-2.1 5.3-9.9 23.4-20 35.6-.2.3-.3.6-.5.8-.3.5-.2.8 0 .9.3.3 1.1.3 2.3 0 18.7-3.9 31.6-12.8 31.6-23.2 0-5.7-3.9-11-10.7-15.3-.6-.5-.9-.5-1.2-.5-.4.1-.7.5-.9.8zm-50.4-.5c-5.7 13.6 5.1 11.9 8.1 11.4 5-1.1 9.8-2.9 13.5-4.5 10.7-4.3 16.4-8.5 18.4-10.2.2-.2.3-.3.5-.5.3-.3.5-.5.5-.9 0-.5-.5-.8-1.2-1.1l-.3-.2c-8.1-2.5-18.1-4-28.6-4-.2 0-.3 0-.6 0-1.2 0-2.7.3-3.9.8-3.8 2.1-5.5 6.9-6.4 9.2zm-10.3-7.7c-18.5 3.8-31.6 12.8-31.5 23.2 0 5.7 3.9 11 10.7 15.3.6.5.9.5 1.2.5.5-.2.8-.5.9-.8.2-.2.3-.6.5-.9 2.1-5.3 9.9-23.4 20-35.6.2-.3.3-.6.5-.8.2-.5.2-.8 0-.9-.4-.3-1.1-.3-2.3 0z" fill="#002c5f"/></svg>