<?xml version="1.0" encoding="utf-8"?>
<!-- Generator: Adobe Illustrator 21.1.0, SVG Export Plug-In . SVG Version: 6.00 Build 0)  -->
<svg version="1.1" id="Ebene_1" xmlns="http://www.w3.org/2000/svg" x="0px" y="0px"
	 viewBox="0 0 283.5 39" style="enable-background:new 0 0 283.5 39;" xml:space="preserve">
<style type="text/css">
	.st0{fill:#003469;}
</style>
<g>
	<g>
		<polygon class="st0" points="108.9,5.5 108.9,16.2 96.8,16.2 96.8,5.5 90.1,5.5 90.1,33.5 96.8,33.5 96.8,22.2 108.9,22.2 
			108.9,33.5 115.5,33.5 115.5,5.5 115.2,5.5 		"/>
		<polygon class="st0" points="139.9,5.5 133,16.6 126,5.5 118.2,5.5 129.7,23.8 129.7,33.5 136.3,33.5 136.3,23.8 147.8,5.5 
			147.2,5.5 		"/>
		<path class="st0" d="M169.2,5.5V26c0,0.8-0.6,1.4-1.4,1.4h-10.7V5.5h-6.7v28h19.7c1.8,0,3.2-0.5,4.2-1.5c1-1,1.5-2.4,1.5-4.2V5.5
			h-0.3H169.2z"/>
		<path class="st0" d="M201.8,5.5h-19.7v28h6.7V11.6h10.7c0.9,0,1.4,0.7,1.4,1.4v20.5h6.7V11.2c0-1.8-0.5-3.2-1.5-4.2
			C204.9,6,203.5,5.5,201.8,5.5z"/>
		<path class="st0" d="M233.3,5.5h-19.7v28h19.7c1.7,0,3.1-0.5,4.2-1.5c1-1,1.5-2.4,1.5-4.2V11.2c0-1.8-0.5-3.2-1.5-4.2
			C236.5,6,235.1,5.5,233.3,5.5z M232.4,13v13c0,0.8-0.6,1.4-1.4,1.4h-10.7V11.6h10.6C231.8,11.6,232.4,12.2,232.4,13z"/>
		<path class="st0" d="M250.6,5.5c-1.7,0-3.2,0.5-4.2,1.5c-1,1-1.5,2.4-1.5,4.2v22.3h6.6v-8.7h12.1v8.7h6.7v-28H250.6z M263.7,11.6
			v7.2h-12.1V13c0-0.7,0.5-1.4,1.4-1.4H263.7z"/>
		<rect x="276.8" y="5.5" class="st0" width="6.7" height="28"/>
	</g>
	<g>
		<g>
			<g>
				<g>
					<path class="st0" d="M38.1,39c21,0,38.1-8.7,38.1-19.5C76.1,8.7,59.1,0,38.1,0C17,0,0,8.7,0,19.5C0,30.3,17,39,38.1,39z
						 M45.2,29.4c-0.6,1.5-1.7,4.6-4.2,5.9c-0.8,0.4-1.7,0.6-2.5,0.6c-0.2,0-0.3,0-0.4,0c-7,0-13.6-1-19-2.6c0,0-0.2-0.1-0.2-0.1
						c-0.5-0.2-0.8-0.4-0.8-0.7c0-0.3,0.1-0.4,0.3-0.6c0.1-0.1,0.2-0.2,0.3-0.3C20,30.5,23.8,27.7,31,25c2.5-1,5.7-2.2,9-2.9
						C41.8,21.7,49,20.6,45.2,29.4z M64.5,9.8c0.1-0.2,0.3-0.4,0.6-0.5c0.2,0,0.4,0,0.8,0.3c4.5,2.8,7.1,6.2,7.1,9.9
						c0,6.7-8.6,12.5-21,15c-0.8,0.2-1.3,0.2-1.5,0c-0.1-0.1-0.2-0.3,0-0.6c0.1-0.1,0.2-0.3,0.3-0.5c6.7-7.9,11.9-19.6,13.3-23
						C64.3,10.2,64.4,9.9,64.5,9.8z M31,9.5c0.6-1.5,1.7-4.6,4.2-5.9C36,3.3,37,3.1,37.8,3.1c0.2,0,0.3,0,0.4,0c7,0,13.6,1,19,2.6
						c0,0,0.2,0.1,0.2,0.1c0.5,0.2,0.8,0.4,0.8,0.7c0,0.3-0.1,0.4-0.3,0.6c-0.1,0.1-0.2,0.2-0.3,0.3c-1.3,1.1-5.1,3.8-12.2,6.6
						c-2.5,1-5.7,2.2-9,2.9C34.4,17.2,27.2,18.3,31,9.5z M24.1,4.5c0.8-0.2,1.3-0.2,1.5,0c0.1,0.1,0.1,0.3,0,0.6
						c-0.1,0.1-0.2,0.3-0.3,0.5c-6.7,7.9-11.9,19.6-13.3,23c-0.1,0.2-0.2,0.5-0.3,0.6c-0.1,0.2-0.3,0.4-0.6,0.5
						c-0.2,0-0.4,0-0.8-0.3c-4.5-2.8-7.1-6.2-7.1-9.9C3.1,12.8,11.8,7,24.1,4.5z"/>
				</g>
			</g>
		</g>
	</g>
</g>
</svg>
